<mxfile host="app.diagrams.net" modified="2021-01-20T19:29:31.758Z" agent="5.0 (X11; Linux x86_64) AppleWebKit/537.36 (KHTML, like Gecko) Chrome/83.0.4103.116 Safari/537.36" etag="bgx3HRSN82tb4IghQASN" version="14.2.5" type="github">
  <diagram id="C5RBs43oDa-KdzZeNtuy" name="Page-1">
    <mxGraphModel dx="868" dy="490" grid="1" gridSize="10" guides="1" tooltips="1" connect="1" arrows="1" fold="1" page="1" pageScale="1" pageWidth="827" pageHeight="1169" math="0" shadow="0">
      <root>
        <mxCell id="WIyWlLk6GJQsqaUBKTNV-0" />
        <mxCell id="WIyWlLk6GJQsqaUBKTNV-1" parent="WIyWlLk6GJQsqaUBKTNV-0" />
        <mxCell id="SoH3S2MWfMUf7g9ZUTfS-44" style="edgeStyle=orthogonalEdgeStyle;rounded=0;orthogonalLoop=1;jettySize=auto;html=1;exitX=0.5;exitY=1;exitDx=0;exitDy=0;" edge="1" parent="WIyWlLk6GJQsqaUBKTNV-1" source="WIyWlLk6GJQsqaUBKTNV-3" target="SoH3S2MWfMUf7g9ZUTfS-0">
          <mxGeometry relative="1" as="geometry" />
        </mxCell>
        <mxCell id="WIyWlLk6GJQsqaUBKTNV-3" value="Pelo Mundo (Redes)" style="rounded=1;whiteSpace=wrap;html=1;fontSize=12;glass=0;strokeWidth=1;shadow=0;" parent="WIyWlLk6GJQsqaUBKTNV-1" vertex="1">
          <mxGeometry x="160" y="130" width="120" height="40" as="geometry" />
        </mxCell>
        <mxCell id="SoH3S2MWfMUf7g9ZUTfS-66" style="edgeStyle=orthogonalEdgeStyle;rounded=0;orthogonalLoop=1;jettySize=auto;html=1;" edge="1" parent="WIyWlLk6GJQsqaUBKTNV-1" source="WIyWlLk6GJQsqaUBKTNV-11" target="SoH3S2MWfMUf7g9ZUTfS-37">
          <mxGeometry relative="1" as="geometry" />
        </mxCell>
        <mxCell id="SoH3S2MWfMUf7g9ZUTfS-67" value="Entra no link do Jitsi" style="edgeLabel;html=1;align=center;verticalAlign=middle;resizable=0;points=[];" vertex="1" connectable="0" parent="SoH3S2MWfMUf7g9ZUTfS-66">
          <mxGeometry x="0.25" relative="1" as="geometry">
            <mxPoint as="offset" />
          </mxGeometry>
        </mxCell>
        <mxCell id="SoH3S2MWfMUf7g9ZUTfS-69" style="edgeStyle=orthogonalEdgeStyle;rounded=0;orthogonalLoop=1;jettySize=auto;html=1;" edge="1" parent="WIyWlLk6GJQsqaUBKTNV-1" source="WIyWlLk6GJQsqaUBKTNV-11">
          <mxGeometry relative="1" as="geometry">
            <mxPoint x="20" y="650" as="targetPoint" />
          </mxGeometry>
        </mxCell>
        <mxCell id="WIyWlLk6GJQsqaUBKTNV-11" value="Torna-se Cordão (IRC)" style="rounded=1;whiteSpace=wrap;html=1;fontSize=12;glass=0;strokeWidth=1;shadow=0;" parent="WIyWlLk6GJQsqaUBKTNV-1" vertex="1">
          <mxGeometry x="170" y="630" width="120" height="40" as="geometry" />
        </mxCell>
        <mxCell id="SoH3S2MWfMUf7g9ZUTfS-49" value="Entra no link" style="edgeStyle=orthogonalEdgeStyle;rounded=0;orthogonalLoop=1;jettySize=auto;html=1;entryX=0.454;entryY=-0.092;entryDx=0;entryDy=0;entryPerimeter=0;" edge="1" parent="WIyWlLk6GJQsqaUBKTNV-1" source="SoH3S2MWfMUf7g9ZUTfS-0" target="SoH3S2MWfMUf7g9ZUTfS-2">
          <mxGeometry relative="1" as="geometry">
            <mxPoint x="220" y="250" as="targetPoint" />
          </mxGeometry>
        </mxCell>
        <mxCell id="SoH3S2MWfMUf7g9ZUTfS-0" value="Link Divulgado" style="rounded=1;whiteSpace=wrap;html=1;" vertex="1" parent="WIyWlLk6GJQsqaUBKTNV-1">
          <mxGeometry x="160" y="210" width="120" height="40" as="geometry" />
        </mxCell>
        <mxCell id="SoH3S2MWfMUf7g9ZUTfS-56" value="&lt;span style=&quot;color: rgb(0 , 0 , 0) ; font-family: &amp;#34;helvetica&amp;#34; ; font-size: 12px ; font-style: normal ; font-weight: 400 ; letter-spacing: normal ; text-align: center ; text-indent: 0px ; text-transform: none ; word-spacing: 0px ; background-color: rgb(248 , 249 , 250) ; display: inline ; float: none&quot;&gt;Link&lt;/span&gt;" style="edgeStyle=orthogonalEdgeStyle;rounded=0;orthogonalLoop=1;jettySize=auto;html=1;" edge="1" parent="WIyWlLk6GJQsqaUBKTNV-1" source="SoH3S2MWfMUf7g9ZUTfS-2" target="SoH3S2MWfMUf7g9ZUTfS-55">
          <mxGeometry relative="1" as="geometry">
            <mxPoint x="110" y="420" as="targetPoint" />
          </mxGeometry>
        </mxCell>
        <mxCell id="SoH3S2MWfMUf7g9ZUTfS-58" value="&lt;span style=&quot;color: rgb(0 , 0 , 0) ; font-family: &amp;#34;helvetica&amp;#34; ; font-size: 12px ; font-style: normal ; font-weight: 400 ; letter-spacing: normal ; text-align: center ; text-indent: 0px ; text-transform: none ; word-spacing: 0px ; background-color: rgb(248 , 249 , 250) ; display: inline ; float: none&quot;&gt;Link&lt;br&gt;&lt;/span&gt;" style="edgeStyle=orthogonalEdgeStyle;rounded=0;orthogonalLoop=1;jettySize=auto;html=1;" edge="1" parent="WIyWlLk6GJQsqaUBKTNV-1" source="SoH3S2MWfMUf7g9ZUTfS-2" target="SoH3S2MWfMUf7g9ZUTfS-3">
          <mxGeometry relative="1" as="geometry">
            <mxPoint x="340" y="420" as="targetPoint" />
          </mxGeometry>
        </mxCell>
        <mxCell id="SoH3S2MWfMUf7g9ZUTfS-2" value="Abre Cordão (Pad RO)" style="rounded=1;whiteSpace=wrap;html=1;" vertex="1" parent="WIyWlLk6GJQsqaUBKTNV-1">
          <mxGeometry x="160" y="350" width="130" height="43.33" as="geometry" />
        </mxCell>
        <mxCell id="SoH3S2MWfMUf7g9ZUTfS-63" value="Convence 2 cordões" style="edgeStyle=orthogonalEdgeStyle;rounded=0;orthogonalLoop=1;jettySize=auto;html=1;" edge="1" parent="WIyWlLk6GJQsqaUBKTNV-1" source="SoH3S2MWfMUf7g9ZUTfS-3" target="WIyWlLk6GJQsqaUBKTNV-11">
          <mxGeometry relative="1" as="geometry" />
        </mxCell>
        <mxCell id="SoH3S2MWfMUf7g9ZUTfS-71" style="edgeStyle=orthogonalEdgeStyle;rounded=0;orthogonalLoop=1;jettySize=auto;html=1;" edge="1" parent="WIyWlLk6GJQsqaUBKTNV-1" source="SoH3S2MWfMUf7g9ZUTfS-3">
          <mxGeometry relative="1" as="geometry">
            <mxPoint x="20" y="490" as="targetPoint" />
          </mxGeometry>
        </mxCell>
        <mxCell id="SoH3S2MWfMUf7g9ZUTfS-3" value="Entra no Papo (IRC)" style="rounded=1;whiteSpace=wrap;html=1;" vertex="1" parent="WIyWlLk6GJQsqaUBKTNV-1">
          <mxGeometry x="250" y="470" width="120" height="40" as="geometry" />
        </mxCell>
        <mxCell id="SoH3S2MWfMUf7g9ZUTfS-72" style="edgeStyle=orthogonalEdgeStyle;rounded=0;orthogonalLoop=1;jettySize=auto;html=1;" edge="1" parent="WIyWlLk6GJQsqaUBKTNV-1" source="SoH3S2MWfMUf7g9ZUTfS-37">
          <mxGeometry relative="1" as="geometry">
            <mxPoint x="20" y="760" as="targetPoint" />
          </mxGeometry>
        </mxCell>
        <mxCell id="SoH3S2MWfMUf7g9ZUTfS-76" value="Link no chat" style="edgeStyle=orthogonalEdgeStyle;rounded=0;orthogonalLoop=1;jettySize=auto;html=1;entryX=0.5;entryY=0;entryDx=0;entryDy=0;" edge="1" parent="WIyWlLk6GJQsqaUBKTNV-1" source="SoH3S2MWfMUf7g9ZUTfS-37" target="SoH3S2MWfMUf7g9ZUTfS-39">
          <mxGeometry relative="1" as="geometry" />
        </mxCell>
        <mxCell id="SoH3S2MWfMUf7g9ZUTfS-37" value="Dentro do Bonde Semente (Jitsi)" style="rounded=1;whiteSpace=wrap;html=1;fontSize=12;glass=0;strokeWidth=1;shadow=0;" vertex="1" parent="WIyWlLk6GJQsqaUBKTNV-1">
          <mxGeometry x="170" y="740" width="120" height="40" as="geometry" />
        </mxCell>
        <mxCell id="SoH3S2MWfMUf7g9ZUTfS-74" style="edgeStyle=orthogonalEdgeStyle;rounded=0;orthogonalLoop=1;jettySize=auto;html=1;" edge="1" parent="WIyWlLk6GJQsqaUBKTNV-1" source="SoH3S2MWfMUf7g9ZUTfS-38">
          <mxGeometry relative="1" as="geometry">
            <mxPoint x="20" y="920" as="targetPoint" />
          </mxGeometry>
        </mxCell>
        <mxCell id="SoH3S2MWfMUf7g9ZUTfS-81" style="edgeStyle=orthogonalEdgeStyle;rounded=0;orthogonalLoop=1;jettySize=auto;html=1;" edge="1" parent="WIyWlLk6GJQsqaUBKTNV-1" source="SoH3S2MWfMUf7g9ZUTfS-38" target="SoH3S2MWfMUf7g9ZUTfS-40">
          <mxGeometry relative="1" as="geometry" />
        </mxCell>
        <mxCell id="SoH3S2MWfMUf7g9ZUTfS-38" value="&lt;font color=&quot;#202122&quot; face=&quot;sans-serif&quot;&gt;&lt;span style=&quot;font-size: 14px ; background-color: rgb(255 , 255 , 255)&quot;&gt;Sendo Estandarte (OP + Pad RW)&lt;/span&gt;&lt;/font&gt;" style="rounded=1;whiteSpace=wrap;html=1;fontSize=12;glass=0;strokeWidth=1;shadow=0;" vertex="1" parent="WIyWlLk6GJQsqaUBKTNV-1">
          <mxGeometry x="150" y="900" width="160" height="40" as="geometry" />
        </mxCell>
        <mxCell id="SoH3S2MWfMUf7g9ZUTfS-73" style="edgeStyle=orthogonalEdgeStyle;rounded=0;orthogonalLoop=1;jettySize=auto;html=1;exitX=0.083;exitY=0.6;exitDx=0;exitDy=0;exitPerimeter=0;" edge="1" parent="WIyWlLk6GJQsqaUBKTNV-1" source="SoH3S2MWfMUf7g9ZUTfS-39">
          <mxGeometry relative="1" as="geometry">
            <mxPoint x="20" y="840" as="targetPoint" />
            <mxPoint x="160" y="840" as="sourcePoint" />
            <Array as="points">
              <mxPoint x="180" y="840" />
            </Array>
          </mxGeometry>
        </mxCell>
        <mxCell id="SoH3S2MWfMUf7g9ZUTfS-80" style="edgeStyle=orthogonalEdgeStyle;rounded=0;orthogonalLoop=1;jettySize=auto;html=1;" edge="1" parent="WIyWlLk6GJQsqaUBKTNV-1" source="SoH3S2MWfMUf7g9ZUTfS-39" target="SoH3S2MWfMUf7g9ZUTfS-38">
          <mxGeometry relative="1" as="geometry" />
        </mxCell>
        <mxCell id="SoH3S2MWfMUf7g9ZUTfS-39" value="Vendo o Estandarte (Pad RO)" style="rounded=1;whiteSpace=wrap;html=1;fontSize=12;glass=0;strokeWidth=1;shadow=0;" vertex="1" parent="WIyWlLk6GJQsqaUBKTNV-1">
          <mxGeometry x="170" y="820" width="120" height="50" as="geometry" />
        </mxCell>
        <mxCell id="SoH3S2MWfMUf7g9ZUTfS-75" style="edgeStyle=orthogonalEdgeStyle;rounded=0;orthogonalLoop=1;jettySize=auto;html=1;" edge="1" parent="WIyWlLk6GJQsqaUBKTNV-1" source="SoH3S2MWfMUf7g9ZUTfS-40">
          <mxGeometry relative="1" as="geometry">
            <mxPoint x="20" y="990" as="targetPoint" />
          </mxGeometry>
        </mxCell>
        <mxCell id="SoH3S2MWfMUf7g9ZUTfS-82" style="edgeStyle=orthogonalEdgeStyle;rounded=0;orthogonalLoop=1;jettySize=auto;html=1;entryX=0.5;entryY=0;entryDx=0;entryDy=0;" edge="1" parent="WIyWlLk6GJQsqaUBKTNV-1" source="SoH3S2MWfMUf7g9ZUTfS-40" target="SoH3S2MWfMUf7g9ZUTfS-41">
          <mxGeometry relative="1" as="geometry" />
        </mxCell>
        <mxCell id="SoH3S2MWfMUf7g9ZUTfS-40" value="&lt;span style=&quot;color: rgb(32 , 33 , 34) ; font-family: sans-serif ; font-size: 14px ; background-color: rgb(255 , 255 , 255)&quot;&gt;Gerando novo Estandarte&lt;/span&gt;" style="rounded=1;whiteSpace=wrap;html=1;fontSize=12;glass=0;strokeWidth=1;shadow=0;" vertex="1" parent="WIyWlLk6GJQsqaUBKTNV-1">
          <mxGeometry x="170" y="970" width="120" height="40" as="geometry" />
        </mxCell>
        <mxCell id="SoH3S2MWfMUf7g9ZUTfS-68" style="edgeStyle=orthogonalEdgeStyle;rounded=0;orthogonalLoop=1;jettySize=auto;html=1;entryX=0;entryY=0.5;entryDx=0;entryDy=0;" edge="1" parent="WIyWlLk6GJQsqaUBKTNV-1" source="SoH3S2MWfMUf7g9ZUTfS-41" target="WIyWlLk6GJQsqaUBKTNV-3">
          <mxGeometry relative="1" as="geometry">
            <Array as="points">
              <mxPoint x="230" y="1110" />
              <mxPoint x="20" y="1110" />
              <mxPoint x="20" y="150" />
            </Array>
          </mxGeometry>
        </mxCell>
        <mxCell id="SoH3S2MWfMUf7g9ZUTfS-41" value="&lt;span style=&quot;color: rgb(32 , 33 , 34) ; font-family: sans-serif ; font-size: 14px ; background-color: rgb(255 , 255 , 255)&quot;&gt;Retorno ás Redes&lt;/span&gt;" style="rounded=1;whiteSpace=wrap;html=1;fontSize=12;glass=0;strokeWidth=1;shadow=0;" vertex="1" parent="WIyWlLk6GJQsqaUBKTNV-1">
          <mxGeometry x="170" y="1050" width="120" height="40" as="geometry" />
        </mxCell>
        <mxCell id="SoH3S2MWfMUf7g9ZUTfS-52" value="Boas vindas, Intro,&amp;nbsp;" style="ellipse;shape=cloud;whiteSpace=wrap;html=1;" vertex="1" parent="WIyWlLk6GJQsqaUBKTNV-1">
          <mxGeometry x="160" y="372" width="120" height="80" as="geometry" />
        </mxCell>
        <mxCell id="SoH3S2MWfMUf7g9ZUTfS-70" style="edgeStyle=orthogonalEdgeStyle;rounded=0;orthogonalLoop=1;jettySize=auto;html=1;" edge="1" parent="WIyWlLk6GJQsqaUBKTNV-1" source="SoH3S2MWfMUf7g9ZUTfS-55">
          <mxGeometry relative="1" as="geometry">
            <mxPoint x="20" y="570" as="targetPoint" />
          </mxGeometry>
        </mxCell>
        <mxCell id="SoH3S2MWfMUf7g9ZUTfS-55" value="Ouve Banda (Stream)" style="rounded=1;whiteSpace=wrap;html=1;" vertex="1" parent="WIyWlLk6GJQsqaUBKTNV-1">
          <mxGeometry x="70" y="550" width="120" height="40" as="geometry" />
        </mxCell>
        <mxCell id="SoH3S2MWfMUf7g9ZUTfS-62" style="edgeStyle=orthogonalEdgeStyle;rounded=0;orthogonalLoop=1;jettySize=auto;html=1;exitX=0.5;exitY=1;exitDx=0;exitDy=0;entryX=0.567;entryY=1;entryDx=0;entryDy=0;entryPerimeter=0;" edge="1" parent="WIyWlLk6GJQsqaUBKTNV-1" source="SoH3S2MWfMUf7g9ZUTfS-39" target="SoH3S2MWfMUf7g9ZUTfS-39">
          <mxGeometry relative="1" as="geometry">
            <Array as="points">
              <mxPoint x="270" y="870" />
              <mxPoint x="270" y="870" />
            </Array>
          </mxGeometry>
        </mxCell>
        <mxCell id="SoH3S2MWfMUf7g9ZUTfS-84" value="Hash do Estandarte -&amp;gt; Random.org lists c/ Dadoware" style="ellipse;shape=cloud;whiteSpace=wrap;html=1;" vertex="1" parent="WIyWlLk6GJQsqaUBKTNV-1">
          <mxGeometry x="290" y="957.5" width="160" height="65" as="geometry" />
        </mxCell>
        <mxCell id="SoH3S2MWfMUf7g9ZUTfS-85" value="Chamazamiga" style="ellipse;shape=cloud;whiteSpace=wrap;html=1;" vertex="1" parent="WIyWlLk6GJQsqaUBKTNV-1">
          <mxGeometry x="290" y="1030" width="160" height="65" as="geometry" />
        </mxCell>
        <mxCell id="SoH3S2MWfMUf7g9ZUTfS-86" value="Hash do Estandarte -&amp;gt; Random.org lists c/ Dadoware" style="ellipse;shape=cloud;whiteSpace=wrap;html=1;" vertex="1" parent="WIyWlLk6GJQsqaUBKTNV-1">
          <mxGeometry x="330" y="887.5" width="160" height="65" as="geometry" />
        </mxCell>
        <mxCell id="SoH3S2MWfMUf7g9ZUTfS-87" value="Estandarte é a central&lt;br&gt;de planejamento do&lt;br&gt;Blouco" style="ellipse;shape=cloud;whiteSpace=wrap;html=1;" vertex="1" parent="WIyWlLk6GJQsqaUBKTNV-1">
          <mxGeometry x="300" y="812.5" width="160" height="65" as="geometry" />
        </mxCell>
        <mxCell id="SoH3S2MWfMUf7g9ZUTfS-88" value="Moderação autogerida" style="ellipse;shape=cloud;whiteSpace=wrap;html=1;" vertex="1" parent="WIyWlLk6GJQsqaUBKTNV-1">
          <mxGeometry x="310" y="727.5" width="160" height="65" as="geometry" />
        </mxCell>
        <mxCell id="SoH3S2MWfMUf7g9ZUTfS-91" value="Canal separado para questões de ordem e pedidos de entrada para Desfile" style="ellipse;shape=cloud;whiteSpace=wrap;html=1;" vertex="1" parent="WIyWlLk6GJQsqaUBKTNV-1">
          <mxGeometry x="300" y="585" width="258.46" height="105" as="geometry" />
        </mxCell>
      </root>
    </mxGraphModel>
  </diagram>
</mxfile>
